<?xml version="1.0" encoding="utf-8"?>
<!-- Svg Vector Icons : http://www.onlinewebfonts.com/icon -->
<!DOCTYPE svg PUBLIC "-//W3C//DTD SVG 1.1//EN" "http://www.w3.org/Graphics/SVG/1.1/DTD/svg11.dtd">
<svg version="1.1" xmlns="http://www.w3.org/2000/svg" xmlns:xlink="http://www.w3.org/1999/xlink" x="0px" y="0px" viewBox="0 0 1000 1000" enable-background="new 0 0 1000 1000" xml:space="preserve">
<metadata> Svg Vector Icons : http://www.onlinewebfonts.com/icon </metadata>
<g><path d="M989.8,482.9c1.3,47.3-3.4,94.8-15.5,140.6c-19.9,75.8-58.5,148-111.8,205.3C801.8,894,724.6,941,640,968.4c-86,27.9-179.9,26.7-266.9,3.8c-81.6-21.5-162.4-66.2-220.3-127.6C85.1,772.7,36.5,685.2,17.6,588c-12.5-64.8-9-135.6,5.9-199.7c18.2-78.4,55.3-152.5,109.2-212.1c53-58.6,118-108.8,193.1-134.9C467.4-7.9,633.5-0.8,760.4,83.8c32.3,21.5,65.4,47.2,92.3,75.3c73.7,76.6,124.5,178.1,134.7,284.6C988.6,456.7,989.4,469.8,989.8,482.9z M500.7,939.5c244.3-1.1,441.4-199.1,440.2-441.2c-1.2-244.7-199.6-440-441.1-439.5C256,59.3,59.7,257.3,60.2,499.6C60.8,743.3,258.7,940.6,500.7,939.5z"/><path d="M223.4,430.7c-38.2,0-69.1,31-69.1,69.1c0,38.2,31,69.1,69.1,69.1s69.1-31,69.1-69.1C292.5,461.6,261.6,430.7,223.4,430.7z M223.4,532.2c-17.9,0-32.3-14.5-32.3-32.3c0-17.9,14.5-32.3,32.3-32.3c17.9,0,32.3,14.5,32.3,32.3C255.7,517.7,241.2,532.2,223.4,532.2z"/><path d="M500.8,430.7c-38.2,0-69.1,31-69.1,69.1c0,38.2,31,69.1,69.1,69.1c38.2,0,69.1-31,69.1-69.1C569.9,461.6,539,430.7,500.8,430.7z M500.8,532.2c-17.9,0-32.3-14.5-32.3-32.3c0-17.9,14.5-32.3,32.3-32.3c17.9,0,32.3,14.5,32.3,32.3C533.1,517.7,518.6,532.2,500.8,532.2z"/><path d="M778.2,430.7c-38.2,0-69.1,31-69.1,69.1c0,38.2,31,69.1,69.1,69.1c38.2,0,69.1-31,69.1-69.1C847.3,461.6,816.3,430.7,778.2,430.7z M778.2,532.2c-17.9,0-32.3-14.5-32.3-32.3c0-17.9,14.5-32.3,32.3-32.3c17.9,0,32.3,14.5,32.3,32.3C810.5,517.7,796,532.2,778.2,532.2z"/></g>
</svg>